<?xml version="1.0" standalone="no"?>
<!DOCTYPE svg PUBLIC "-//W3C//DTD SVG 20010904//EN"
 "http://www.w3.org/TR/2001/REC-SVG-20010904/DTD/svg10.dtd">
<svg version="1.0" xmlns="http://www.w3.org/2000/svg"
 width="512.000000pt" height="512.000000pt" viewBox="0 0 512.000000 512.000000"
 preserveAspectRatio="xMidYMid meet">
<metadata>
Created by potrace 1.11, written by Peter Selinger 2001-2013
</metadata>
<g transform="translate(0.000000,512.000000) scale(0.100000,-0.100000)"
fill="#000000" stroke="none">
<path d="M0 2560 l0 -2560 2560 0 2560 0 0 2560 0 2560 -2560 0 -2560 0 0
-2560z m2972 1058 c70 -32 123 -86 157 -157 25 -53 26 -66 29 -244 4 -169 6
-187 20 -183 130 40 316 49 442 21 159 -36 344 -149 440 -269 93 -115 139
-209 183 -366 30 -110 30 -361 -1 -475 -42 -153 -110 -272 -221 -389 -79 -81
-155 -135 -265 -186 -109 -51 -190 -70 -321 -77 -250 -13 -469 66 -642 231
-125 118 -198 236 -250 403 l-28 88 0 700 c0 697 0 700 22 747 38 83 126 155
218 179 55 15 158 4 217 -23z m1443 -7 c193 -109 187 -390 -12 -487 -191 -94
-408 56 -391 270 8 90 44 149 131 216 61 46 191 47 272 1z m-2129 -13 c64 -34
128 -105 148 -165 9 -26 16 -79 16 -118 0 -122 -68 -227 -179 -279 -41 -18
-69 -21 -248 -24 l-202 -4 -3 -716 -3 -717 -23 -43 c-98 -183 -340 -228 -494
-93 -24 22 -57 65 -73 97 l-30 59 -3 707 -3 706 -202 4 c-187 3 -205 5 -249
27 -99 48 -166 143 -175 250 -14 149 65 275 200 323 48 16 101 17 762 15 l710
-2 51 -27z"/>
<path d="M3212 2577 c-55 -31 -57 -42 -60 -318 -3 -211 -1 -263 12 -293 19
-47 70 -79 114 -72 18 3 133 63 255 134 194 113 224 134 241 167 16 32 17 43
7 76 -15 49 -29 59 -277 203 -208 121 -239 132 -292 103z"/>
</g>
</svg>
